:FULLY-SPECIFIED
:FORCE-ALL-JOINTS-BE-3DOF
:DEGREES
1019
root 1.33257 15.2862 32.7275 5.67352 -3.23269 4.02124
lfemur 5.94917 0.70997 3.59521
ltibia 4.78252 -0 0
lfoot -31.6986 -12.3918 -0.0147944
ltoes -32.4672 0 0
rfemur -30.2507 -12.6498 -7.60397
rtibia 48.5334 -0 0
rfoot -18.9018 2.2024 -0.0810044
rtoes -42.443 0 0
lowerback -2.69088 -0.45689 -0.522234
upperback -0.949487 -0.556215 -6.53013
thorax 0.463699 -0.292034 -6.51093
lowerneck -7.29655 0.612761 4.93648
upperneck 2.1544 0.201131 3.85924
head 1.92468 0.252059 0.385974
lclavicle 1.34754e-15 -9.22793e-15 2.08704e-31
lhumerus -58.5598 -45.2656 113.571
lradius 55.6469 -0 0
lwrist 25.6498 0 0
lhand 39.4177 24.834 -0.00980626
lfingers 7.12502 -0 0
lthumb 61.8929 36.3233 -0.0351135
rclavicle 1.34754e-15 -9.22793e-15 2.08704e-31
rhumerus -0.171918 -9.42978 -2.87086
rradius 34.0976 -0 0
rwrist -12.7893 0 0
rhand -24.3092 -39.7615 0.0920005
rfingers 7.12502 -0 0
rthumb 2.17752 -69.6276 0.0937672
1020
root 1.33163 15.2844 32.7269 5.66432 -3.23809 4.00861
lfemur 5.97122 0.711672 3.61658
ltibia 4.76684 -0 0
lfoot -31.7091 -12.3617 -0.0147557
ltoes -32.4943 0 0
rfemur -30.2523 -12.6826 -7.58647
rtibia 48.5461 -0 0
rfoot -18.945 2.24248 -0.0807928
rtoes -42.4226 0 0
lowerback -2.68235 -0.450711 -0.523025
upperback -0.943071 -0.547937 -6.52105
thorax 0.466571 -0.287699 -6.50043
lowerneck -7.30089 0.61305 4.95664
upperneck 2.15483 0.199291 3.86019
head 1.92564 0.251426 0.38281
lclavicle 1.34078e-15 -8.56802e-15 2.08159e-31
lhumerus -58.5555 -45.2862 113.597
lradius 55.6471 -0 0
lwrist 25.6488 0 0
lhand 39.3919 24.8421 -0.00978064
lfingers 7.12502 -0 0
lthumb 61.8715 36.3583 -0.0350217
rclavicle 1.34078e-15 -8.56802e-15 2.08159e-31
rhumerus -0.136113 -9.62592 -2.81891
rradius 34.0004 -0 0
rwrist -12.7326 0 0
rhand -24.4023 -39.7826 0.0917599
rfingers 7.12502 -0 0
rthumb 2.08764 -69.65 0.093522
1021
root 1.33068 15.2827 32.7262 5.65513 -3.24349 3.99599
lfemur 5.99327 0.713365 3.63794
ltibia 4.75115 -0 0
lfoot -31.7196 -12.3316 -0.0147116
ltoes -32.5214 0 0
rfemur -30.2538 -12.7154 -7.56895
rtibia 48.5588 -0 0
rfoot -18.9883 2.28255 -0.0805508
rtoes -42.4023 0 0
lowerback -2.67381 -0.444532 -0.523815
upperback -0.936653 -0.53966 -6.51196
thorax 0.469444 -0.283364 -6.48993
lowerneck -7.30523 0.61334 4.9768
upperneck 2.15526 0.197452 3.86114
head 1.9266 0.250793 0.379646
lclavicle 1.33402e-15 -7.90811e-15 2.07536e-31
lhumerus -58.5513 -45.3067 113.624
lradius 55.6473 -0 0
lwrist 25.6477 0 0
lhand 39.3662 24.8503 -0.00975137
lfingers 7.12502 -0 0
lthumb 61.8501 36.3933 -0.0349169
rclavicle 1.33402e-15 -7.90811e-15 2.07536e-31
rhumerus -0.100467 -9.82209 -2.76704
rradius 33.9032 -0 0
rwrist -12.6759 0 0
rhand -24.4954 -39.8038 0.0914849
rfingers 7.12502 -0 0
rthumb 1.99775 -69.6723 0.0932418
1022
root 1.32973 15.281 32.7256 5.64594 -3.24889 3.98336
lfemur 6.01532 0.71505 3.65931
ltibia 4.73546 -0 0
lfoot -31.7301 -12.3015 -0.0146619
ltoes -32.5485 0 0
rfemur -30.2553 -12.7482 -7.55144
rtibia 48.5715 -0 0
rfoot -19.0315 2.32262 -0.0802787
rtoes -42.382 0 0
lowerback -2.66527 -0.438353 -0.524604
upperback -0.930234 -0.531385 -6.50287
thorax 0.472318 -0.27903 -6.47943
lowerneck -7.30957 0.613631 4.99697
upperneck 2.15569 0.195612 3.8621
head 1.92756 0.250159 0.376483
lclavicle 1.32726e-15 -7.2482e-15 2.06835e-31
lhumerus -58.547 -45.3273 113.65
lradius 55.6476 -0 0
lwrist 25.6467 0 0
lhand 39.3405 24.8584 -0.00971843
lfingers 7.12502 -0 0
lthumb 61.8286 36.4284 -0.034799
rclavicle 1.32726e-15 -7.2482e-15 2.06835e-31
rhumerus -0.0649803 -10.0183 -2.71527
rradius 33.806 -0 0
rwrist -12.6192 0 0
rhand -24.5884 -39.8249 0.0911756
rfingers 7.12502 -0 0
rthumb 1.90786 -69.6946 0.0929266
